HIERARCHY
ROOT base
{
	OFFSET 0.000000 0.000000 0.000000
	CHANNELS 6 Xposition Yposition Zposition Xrotation Yrotation Zrotation
	JOINT torso
	{
		OFFSET 0.000000 0.000000 0.417233
		CHANNELS 3 Xrotation Yrotation Zrotation
		JOINT head
		{
			OFFSET 0.000000 0.000000 0.313722
			CHANNELS 3 Xrotation Yrotation Zrotation
			End Site
			{
				OFFSET 0.000000 0.000000 0.186142
			}
		}
		JOINT arm.upper.left
		{
			OFFSET 0.158953 0.000000 0.273984
			CHANNELS 6 Xposition Yposition Zposition Xrotation Yrotation Zrotation
			JOINT arm.lower.left
			{
				OFFSET 0.004183 0.000000 -0.184050
				CHANNELS 3 Xrotation Yrotation Zrotation
				End Site
				{
					OFFSET -0.004183 0.000000 -0.177776
				}
			}
		}
		JOINT arm.upper.right
		{
			OFFSET -0.158953 0.000000 0.273984
			CHANNELS 6 Xposition Yposition Zposition Xrotation Yrotation Zrotation
			JOINT arm.lower.right
			{
				OFFSET -0.004183 0.000000 -0.184050
				CHANNELS 3 Xrotation Yrotation Zrotation
				End Site
				{
					OFFSET 0.004183 0.000000 -0.177776
				}
			}
		}
	}
	JOINT leg.upper.left
	{
		OFFSET 0.075293 0.000000 0.385861
		CHANNELS 6 Xposition Yposition Zposition Xrotation Yrotation Zrotation
		JOINT leg.lower.left
		{
			OFFSET 0.000000 0.000000 -0.188233
			CHANNELS 3 Xrotation Yrotation Zrotation
			End Site
			{
				OFFSET 0.000000 0.000000 -0.196599
			}
		}
	}
	JOINT leg.upper.right
	{
		OFFSET -0.075293 0.000000 0.385861
		CHANNELS 6 Xposition Yposition Zposition Xrotation Yrotation Zrotation
		JOINT leg.lower.right
		{
			OFFSET 0.000000 0.000000 -0.188233
			CHANNELS 3 Xrotation Yrotation Zrotation
			End Site
			{
				OFFSET 0.000000 0.000000 -0.196599
			}
		}
	}
}
MOTION
Frames: 20
Frame Time: 0.041667
0.000000 0.000000 0.000000 -0.000000 0.000000 -0.000000 -0.000000 0.000000 -0.000000 -0.000000 0.000000 -0.000000 0.158953 0.000000 0.273984 3.529842 -4.412943 -0.393091 18.196467 8.885862 -1.550171 -0.158953 0.000000 0.273984 -3.134042 4.331762 -0.322395 -15.237069 -8.746203 -1.278103 0.075293 0.000000 0.385861 -19.380091 -0.000000 -0.000000 -0.309946 -0.000000 -0.000000 -0.075293 0.000000 0.385861 21.261100 -0.000000 0.000000 -0.285773 0.000000 0.000000 
0.000000 0.000000 0.000000 -0.000000 0.000000 -0.000000 -0.000000 0.000000 -0.000000 -0.000000 0.000000 -0.000000 0.158953 0.000000 0.273984 2.159960 -4.587070 -0.439304 18.202239 9.236698 -1.549021 -0.158953 0.000000 0.273984 -1.595623 4.330741 -0.359285 -15.163360 -8.745173 -1.208728 0.075293 0.000000 0.385861 -17.564069 -0.000000 -0.000000 -0.224815 -0.000000 -0.000000 -0.075293 0.000000 0.385861 20.894170 -0.000000 0.000000 -4.544101 0.000000 0.000000 
0.000000 0.000000 0.000000 -0.000000 0.000000 -0.000000 -0.000000 0.000000 -0.000000 -0.000000 0.000000 -0.000000 0.158953 0.000000 0.273984 -1.429192 -5.037504 -0.564876 18.191613 10.155071 -1.543353 -0.158953 0.000000 0.273984 2.433679 4.324752 -0.440041 -14.596755 -8.750145 -0.990743 0.075293 0.000000 0.385861 -12.253242 0.000000 0.000000 -0.002124 0.000000 -0.000000 -0.075293 0.000000 0.385861 19.422976 -0.000000 0.000000 -15.801158 0.000000 0.000000 
0.000000 0.000000 0.000000 -0.000000 0.000000 -0.000000 -0.000000 0.000000 -0.000000 -0.000000 0.000000 -0.000000 0.158953 0.000000 0.273984 -5.020858 -5.480979 -0.677793 18.111341 11.075465 -1.529292 -0.158953 0.000000 0.273984 6.462307 4.318289 -0.478249 -13.020529 -8.771191 -0.672996 0.075293 0.000000 0.385861 -5.441099 0.000000 0.000000 0.220565 0.000000 -0.000000 -0.075293 0.000000 0.385861 16.564399 -0.000000 0.000000 -27.058221 0.000000 0.000000 
0.000000 0.000000 0.000000 -0.000000 0.000000 -0.000000 -0.000000 0.000000 -0.000000 -0.000000 0.000000 -0.000000 0.158953 0.000000 0.273984 -6.391243 -5.652879 -0.646724 17.941281 11.431772 -1.506689 -0.158953 0.000000 0.273984 7.999148 4.326617 -0.409018 -10.388889 -8.805015 -0.349063 0.075293 0.000000 0.385861 0.167664 0.000000 -0.000000 0.305699 0.000000 -0.000000 -0.075293 0.000000 0.385861 12.668695 -0.000000 0.000000 -31.316551 0.000000 0.000000 
0.000000 0.000000 0.000000 -0.000000 0.000000 -0.000000 -0.000000 0.000000 -0.000000 -0.000000 0.000000 -0.000000 0.158953 0.000000 0.273984 -6.330204 -5.540320 -0.485921 14.856271 11.276292 -1.162122 -0.158953 0.000000 0.273984 7.832008 4.343006 -0.261394 -5.661852 -8.846438 0.059792 0.075293 0.000000 0.385861 5.283321 -0.000000 -0.000000 0.302028 0.000000 -0.000000 -0.075293 0.000000 0.385861 6.792343 0.000000 0.000000 -28.635068 0.000000 0.000000 
0.000000 0.000000 0.000000 -0.000000 0.000000 -0.000000 -0.000000 0.000000 -0.000000 -0.000000 0.000000 -0.000000 0.158953 0.000000 0.273984 -6.064052 -5.210653 -0.258386 6.489711 10.730652 -0.291799 -0.158953 0.000000 0.273984 7.263658 4.358015 -0.077143 1.915162 -8.861166 0.628471 0.075293 0.000000 0.385861 11.158243 -0.000001 0.000000 0.270309 0.000000 -0.000000 -0.075293 0.000000 0.385861 -1.819228 0.000001 0.000000 -20.995187 0.000000 0.000000 
0.000000 0.000000 0.000000 -0.000000 0.000000 -0.000000 -0.000000 0.000000 -0.000000 -0.000000 0.000000 -0.000000 0.158953 0.000000 0.273984 -5.453829 -4.784008 -0.009284 -4.188520 9.847626 0.657213 -0.158953 0.000000 0.273984 6.263440 4.373303 0.116082 10.197447 -8.825447 1.184961 0.075293 0.000000 0.385861 16.567703 -0.000002 0.000000 0.172185 -0.000000 -0.000000 -0.075293 0.000000 0.385861 -10.868618 0.000002 0.000000 -11.070622 0.000000 0.000000 
0.000000 0.000000 0.000000 -0.000000 0.000000 -0.000000 -0.000000 0.000000 -0.000000 -0.000000 0.000000 -0.000000 0.158953 0.000000 0.273984 -4.451421 -4.449739 0.195880 -12.383971 9.049870 1.209935 -0.158953 0.000000 0.273984 4.955928 4.391605 0.279859 16.161163 -8.806135 1.519951 0.075293 0.000000 0.385861 20.114837 -0.000003 0.000000 -0.015963 -0.000000 -0.000000 -0.075293 0.000000 0.385861 -17.240323 0.000003 0.000000 -3.267591 0.000000 0.000000 
0.000000 0.000000 0.000000 -0.000000 0.000000 -0.000000 -0.000000 0.000000 -0.000000 -0.000000 0.000000 -0.000000 0.158953 0.000000 0.273984 -3.134054 -4.329507 0.322401 -15.237071 8.746202 1.278103 -0.158953 0.000000 0.273984 3.529826 4.415197 0.393095 18.196471 -8.885861 1.550171 0.075293 0.000000 0.385861 21.261100 -0.000003 0.000000 -0.285773 -0.000000 -0.000000 -0.075293 0.000000 0.385861 -19.380091 0.000003 0.000001 -0.309949 0.000000 0.000000 
0.000000 0.000000 0.000000 -0.000000 0.000000 -0.000000 -0.000000 0.000000 -0.000000 -0.000000 0.000000 -0.000000 0.158953 0.000000 0.273984 -1.115041 -4.326317 0.410506 -15.182703 8.738838 1.130675 -0.158953 0.000000 0.273984 1.618936 4.545083 0.488725 18.207917 -9.210551 1.463955 0.075293 0.000000 0.385861 21.139458 -0.000003 0.000000 -3.236607 -0.000000 -0.000000 -0.075293 0.000000 0.385861 -18.293803 0.000003 0.000000 -0.029104 -0.000000 0.000000 
0.000000 0.000000 0.000000 -0.000000 0.000000 -0.000000 -0.000000 0.000000 -0.000000 -0.000000 0.000000 -0.000000 0.158953 0.000000 0.273984 1.863641 -4.319450 0.486694 -14.901755 8.738582 0.972079 -0.158953 0.000000 0.273984 -1.055383 4.858836 0.595507 18.209146 -9.864695 1.445059 0.075293 0.000000 0.385861 20.518003 -0.000003 0.000000 -11.044041 -0.000000 -0.000000 -0.075293 0.000000 0.385861 -14.948837 0.000002 0.000000 0.166726 -0.000000 0.000000 
0.000000 0.000000 0.000000 -0.000000 0.000000 -0.000000 -0.000000 0.000000 -0.000000 -0.000000 0.000000 -0.000000 0.158953 0.000000 0.273984 5.008382 -4.312490 0.521877 -14.092016 8.750783 0.791558 -0.158953 0.000000 0.273984 -3.810568 5.246861 0.685844 18.174819 -10.639614 1.473723 0.075293 0.000000 0.385861 18.971771 -0.000002 0.000000 -20.980360 -0.000000 -0.000000 -0.075293 0.000000 0.385861 -9.889106 0.000001 0.000000 0.268866 -0.000000 0.000000 
0.000000 0.000000 0.000000 -0.000000 0.000000 -0.000000 -0.000000 0.000000 -0.000000 -0.000000 0.000000 -0.000000 0.158953 0.000000 0.273984 7.243326 -4.313075 0.495203 -12.567016 8.775237 0.583008 -0.158953 0.000000 0.273984 -5.743298 5.545566 0.712542 18.085441 -11.224192 1.506034 0.075293 0.000000 0.385861 16.302062 -0.000002 0.000000 -28.631036 -0.000000 -0.000000 -0.075293 0.000000 0.385861 -4.463588 0.000000 0.000000 0.301879 -0.000000 0.000000 
0.000000 0.000000 0.000000 -0.000000 0.000000 -0.000000 -0.000000 0.000000 -0.000000 -0.000000 0.000000 -0.000000 0.158953 0.000000 0.273984 7.999135 -4.324363 0.409024 -10.388888 8.805016 0.349063 -0.158953 0.000000 0.273984 -6.391270 5.655135 0.646727 17.941280 -11.431769 1.506689 0.075293 0.000000 0.385861 12.668694 -0.000002 0.000000 -31.316551 -0.000000 -0.000000 -0.075293 0.000000 0.385861 0.167664 -0.000000 0.000000 0.305699 -0.000000 0.000000 
0.000000 0.000000 0.000000 -0.000000 0.000000 -0.000000 -0.000000 0.000000 -0.000000 -0.000000 0.000000 -0.000000 0.158953 0.000000 0.273984 7.600845 -4.345749 0.258209 -6.105167 8.862125 0.008443 -0.158953 0.000000 0.273984 -6.098535 5.544038 0.477100 14.885695 -11.267717 1.187712 0.075293 0.000000 0.385861 6.945130 -0.000001 0.000000 -28.585600 -0.000000 -0.000000 -0.075293 0.000000 0.385861 4.934763 -0.000000 0.000000 0.253124 -0.000000 0.000000 
0.000000 0.000000 0.000000 -0.000000 0.000000 -0.000000 -0.000000 0.000000 -0.000000 -0.000000 0.000000 -0.000000 0.158953 0.000000 0.273984 6.481728 -4.373500 0.043029 1.387125 8.930180 -0.499188 -0.158953 0.000000 0.273984 -5.280819 5.216743 0.214091 6.527719 -10.709506 0.372813 0.075293 0.000000 0.385861 -1.637285 -0.000001 -0.000000 -20.824635 -0.000000 -0.000000 -0.075293 0.000000 0.385861 10.746590 -0.000000 0.000000 0.105036 0.000000 0.000000 
0.000000 0.000000 0.000000 -0.000000 0.000000 -0.000000 -0.000000 0.000000 -0.000000 -0.000000 0.000000 -0.000000 0.158953 0.000000 0.273984 5.045260 -4.396898 -0.181148 9.863984 8.942085 -1.041018 -0.158953 0.000000 0.273984 -4.234647 4.789097 -0.063454 -4.153879 -9.827357 -0.532051 0.075293 0.000000 0.385861 -10.752444 -0.000001 -0.000000 -10.801864 -0.000000 -0.000000 -0.075293 0.000000 0.385861 16.304835 -0.000000 0.000000 -0.085108 0.000000 0.000000 
0.000000 0.000000 0.000000 -0.000000 0.000000 -0.000000 -0.000000 0.000000 -0.000000 -0.000000 0.000000 -0.000000 0.158953 0.000000 0.273984 3.926815 -4.409498 -0.339595 16.068843 8.906399 -1.422750 -0.158953 0.000000 0.273984 -3.422082 4.452118 -0.257496 -12.362364 -9.040754 -1.105165 0.075293 0.000000 0.385861 -17.206341 -0.000000 -0.000000 -3.040901 -0.000000 -0.000000 -0.075293 0.000000 0.385861 20.037504 -0.000000 0.000000 -0.233199 0.000000 0.000000 
0.000000 0.000000 0.000000 -0.000000 0.000000 -0.000000 -0.000000 0.000000 -0.000000 -0.000000 0.000000 -0.000000 0.158953 0.000000 0.273984 3.529842 -4.412943 -0.393091 18.196467 8.885862 -1.550171 -0.158953 0.000000 0.273984 -3.134042 4.331762 -0.322395 -15.237069 -8.746203 -1.278103 0.075293 0.000000 0.385861 -19.380091 -0.000000 -0.000000 -0.309946 -0.000000 -0.000000 -0.075293 0.000000 0.385861 21.261100 -0.000000 0.000000 -0.285773 0.000000 0.000000 
